HIERARCHY
ROOT Hips
{
	OFFSET 0.000000 0.000000 0.000000
	CHANNELS 6 Xposition Yposition Zposition Zrotation Yrotation Xrotation 
	JOINT LeftUpLeg_virtual
	{
		OFFSET 0.000000 0.000000 0.000000
		CHANNELS 3 Zrotation Yrotation Xrotation
		JOINT LeftUpLeg
		{
			OFFSET 8.479694 -4.795517 -0.379053
			CHANNELS 3 Zrotation Yrotation Xrotation
			JOINT LeftLeg
			{
				OFFSET 0.485052 -32.551468 0.112863
				CHANNELS 3 Zrotation Yrotation Xrotation
				JOINT LeftFoot
				{
					OFFSET 0.438033 -32.635670 -3.012641
					CHANNELS 3 Zrotation Yrotation Xrotation
					JOINT LeftToeBase
					{
						OFFSET 0.970169 -13.225353 11.864223
						CHANNELS 3 Zrotation Yrotation Xrotation
						End Site
						{
							OFFSET 0.000000 0.000000 0.000000
						}
					}
				}
			}
		}
	}
	JOINT RightUpLeg_virtual
	{
		OFFSET 0.000000 0.000000 0.000000
		CHANNELS 3 Zrotation Yrotation Xrotation
		JOINT RightUpLeg
		{
			OFFSET -8.479694 -4.795517 -0.379053
			CHANNELS 3 Zrotation Yrotation Xrotation
			JOINT RightLeg
			{
				OFFSET -0.484100 -32.551483 0.112903
				CHANNELS 3 Zrotation Yrotation Xrotation
				JOINT RightFoot
				{
					OFFSET -0.438985 -32.635651 -3.012681
					CHANNELS 3 Zrotation Yrotation Xrotation
					JOINT RightToeBase
					{
						OFFSET -0.970169 -13.225354 11.864223
						CHANNELS 3 Zrotation Yrotation Xrotation
						End Site
						{
							OFFSET 0.000000 0.000000 0.000000
						}
					}
				}
			}
		}
	}
	JOINT Spine_virtual
	{
		OFFSET 0.000000 0.000000 0.000000
		CHANNELS 3 Zrotation Yrotation Xrotation
		JOINT Spine
		{
			OFFSET 0.000000 7.722015 1.166203
			CHANNELS 3 Zrotation Yrotation Xrotation
			JOINT Spine1
			{
				OFFSET 0.000000 12.024086 0.248766
				CHANNELS 3 Zrotation Yrotation Xrotation
				JOINT Spine2
				{
					OFFSET -0.000000 11.503036 -0.491240
					CHANNELS 3 Zrotation Yrotation Xrotation
					JOINT Neck_virtual
					{
						OFFSET 0.000000 0.000000 0.000000
						CHANNELS 3 Zrotation Yrotation Xrotation
						JOINT Neck
						{
							OFFSET 0.000000 18.430687 -3.123054
							CHANNELS 3 Zrotation Yrotation Xrotation
							JOINT Head
							{
								OFFSET -0.000000 9.051071 1.034021
								CHANNELS 3 Zrotation Yrotation Xrotation
								End Site
								{
									OFFSET 0.000000 0.000000 0.000000
								}
							}
						}
					}
					JOINT LeftShoulder_virtual
					{
						OFFSET 0.000000 0.000000 0.000000
						CHANNELS 3 Zrotation Yrotation Xrotation
						JOINT LeftShoulder
						{
							OFFSET 6.197824 13.665230 -4.064723
							CHANNELS 3 Zrotation Yrotation Xrotation
							JOINT LeftArm
							{
								OFFSET 7.778132 -0.187073 -1.709282
								CHANNELS 3 Zrotation Yrotation Xrotation
								JOINT LeftForeArm
								{
									OFFSET 21.954697 0.000000 -2.041093
									CHANNELS 3 Zrotation Yrotation Xrotation
									JOINT LeftHand
									{
										OFFSET 22.992908 0.000000 -0.870901
										CHANNELS 3 Zrotation Yrotation Xrotation
										End Site
										{
											OFFSET 0.000000 0.000000 0.000000
										}
									}
								}
							}
						}
					}
					JOINT RightShoulder_virtual
					{
						OFFSET 0.000000 0.000000 0.000000
						CHANNELS 3 Zrotation Yrotation Xrotation
						JOINT RightShoulder
						{
							OFFSET -6.197824 13.665230 -4.064723
							CHANNELS 3 Zrotation Yrotation Xrotation
							JOINT RightArm
							{
								OFFSET -7.778132 -0.187073 -1.709282
								CHANNELS 3 Zrotation Yrotation Xrotation
								JOINT RightForeArm
								{
									OFFSET -21.954697 0.000000 -2.041093
									CHANNELS 3 Zrotation Yrotation Xrotation
									JOINT RightHand
									{
										OFFSET -22.992908 0.000000 -0.870901
										CHANNELS 3 Zrotation Yrotation Xrotation
										End Site
										{
											OFFSET 0.000000 0.000000 0.000000
										}
									}
								}
							}
						}
					}
				}
			}
		}
	}
}
MOTION
Frames: 14
Frame Time: 0.033333
10.897957 52.635113 -26.717152 179.552286 12.170484 179.459095 4.601328 7.012147 17.278965 -4.178127 15.041834 -72.851836 14.217420 5.904846 104.216645 -3.233919 -17.819200 -22.054642 0.000000 0.000000 0.000000 5.972049 4.937860 19.942675 8.154040 -24.918477 -58.165447 -0.150081 -0.406840 117.148044 -4.407847 23.481512 -28.210097 0.000000 0.000000 0.000000 11.422890 4.690675 34.713648 -0.369677 -3.810867 20.910030 2.774437 -3.750411 5.515390 0.056214 -0.067937 -0.083485 3.878109 -3.957349 4.853427 -1.631718 5.883513 -23.650611 0.000000 0.000000 0.000000 4.768544 -3.033346 0.841732 -2.723135 -6.773947 -3.127705 -51.230568 -47.323990 11.788715 0.500879 -72.357576 -5.414635 0.000000 0.000000 0.000000 0.959015 -1.573927 0.083039 13.381161 22.798229 -3.116596 19.516427 39.592148 -40.974691 -50.558307 81.315082 -56.256631 0.000000 0.000000 0.000000 
10.955110 52.669575 -26.566189 179.536235 12.247208 179.453125 4.758607 7.225261 17.417872 -3.935928 14.803259 -72.942104 14.554213 6.214468 104.051450 -3.480441 -18.177775 -21.843652 0.000000 0.000000 0.000000 6.107489 4.928536 19.924659 8.008160 -25.235264 -58.199721 -0.100387 -0.601231 117.127335 -4.753469 23.431954 -28.378070 0.000000 0.000000 0.000000 11.414254 4.925853 34.757552 -0.238232 -3.823171 20.935471 2.847475 -3.766417 5.548248 0.057052 -0.137407 -0.085513 3.967925 -3.925135 4.967474 -2.006844 5.834675 -23.904839 0.000000 0.000000 0.000000 4.952402 -2.980488 0.964273 -3.216549 -6.930052 -3.020440 -50.566189 -47.264475 11.419969 0.630468 -71.966958 -4.979539 0.000000 0.000000 0.000000 1.131252 -1.418520 0.244812 13.020042 23.410443 -2.760845 15.938786 35.308123 -42.548513 -28.535070 76.631021 -33.225298 0.000000 0.000000 0.000000 
11.067467 52.725624 -26.482658 179.430094 12.228188 179.424042 4.672196 7.068876 17.497442 -4.046445 14.857000 -73.072881 14.168140 6.019408 103.689655 -3.431915 -18.163817 -21.703556 0.000000 0.000000 0.000000 5.804203 5.026248 20.227749 6.734559 -25.287479 -57.924553 0.612256 0.279754 116.584308 -5.326637 23.434601 -31.439566 0.000000 0.000000 0.000000 11.251868 4.983126 34.841283 -0.090725 -3.876233 20.906425 2.976663 -3.663542 5.530933 0.068256 -0.044843 -0.076476 4.036808 -3.958589 5.025176 -2.302777 5.764242 -24.002547 0.000000 0.000000 0.000000 4.990469 -3.065536 1.047222 -3.606835 -7.197308 -3.041466 -50.164570 -47.036060 10.963962 0.111701 -71.602198 -3.860794 0.000000 0.000000 0.000000 1.267816 -1.556520 0.298293 12.477548 23.929744 -2.484912 12.695488 31.424396 -44.125969 -18.954642 71.129221 -22.424066 0.000000 0.000000 0.000000 
11.220948 52.797604 -26.456795 179.420983 12.183190 179.403484 4.615904 6.935055 17.522260 -3.870308 14.669457 -73.118008 13.923340 5.916050 103.373574 -3.522786 -18.239711 -21.600653 0.000000 0.000000 0.000000 5.661157 5.041344 20.242053 6.043660 -25.385090 -57.784869 1.123251 0.669516 115.841443 -5.385196 23.538789 -32.788958 0.000000 0.000000 0.000000 11.159072 5.007800 34.890382 0.082889 -3.940576 20.853319 3.073526 -3.697523 5.603529 0.053644 -0.119556 -0.050408 4.134421 -3.908989 5.048262 -2.572070 5.633314 -24.237596 0.000000 0.000000 0.000000 5.128876 -3.011318 1.076797 -4.051230 -7.459806 -2.819747 -49.658682 -46.906229 10.817587 1.057553 -71.117460 -4.178785 0.000000 0.000000 0.000000 1.427028 -1.539912 0.356129 11.828337 24.369118 -2.262890 10.044661 28.327192 -45.610484 -14.552404 65.937499 -17.011655 0.000000 0.000000 0.000000 
11.398725 52.895458 -26.498661 179.409453 12.320229 179.358227 4.582271 6.987696 17.567849 -3.794690 14.760560 -72.978809 13.647480 5.768184 103.046859 -3.626833 -18.318195 -21.574240 0.000000 0.000000 0.000000 5.727473 4.874183 20.262589 6.062779 -26.015185 -57.578249 1.181763 0.538697 115.606143 -4.774154 23.014396 -32.396171 0.000000 0.000000 0.000000 11.007074 4.969762 34.996807 0.156538 -3.916556 20.794195 3.079223 -3.616665 5.640481 0.056144 -0.069553 -0.053890 4.190004 -3.784445 5.086444 -2.722747 5.571232 -24.386688 0.000000 0.000000 0.000000 5.187036 -2.842612 1.181351 -4.380421 -7.669547 -2.818523 -49.526385 -46.900648 10.748355 0.602524 -70.656975 -3.105873 0.000000 0.000000 0.000000 1.511833 -1.495723 0.476990 11.164195 24.595284 -2.027251 8.232080 26.048969 -46.782821 -12.145976 61.412485 -13.772123 0.000000 0.000000 0.000000 
11.614811 52.997257 -26.621710 179.407855 12.110450 179.383362 4.562171 6.733355 17.482561 -3.597529 14.741437 -72.717582 13.373377 5.623300 102.768577 -3.733966 -18.332016 -21.601163 0.000000 0.000000 0.000000 5.794265 4.788688 20.218089 6.016473 -26.316953 -57.190902 1.003506 0.428154 115.266177 -4.197995 22.931042 -32.159765 0.000000 0.000000 0.000000 11.107057 4.804866 34.899739 0.348358 -3.867511 20.698275 3.074155 -3.621018 5.680790 0.063732 -0.133967 -0.044567 4.085133 -3.798727 5.132065 -2.866833 5.376576 -24.634812 0.000000 0.000000 0.000000 5.105975 -2.874154 1.208217 -4.551781 -7.932092 -2.746100 -49.274593 -47.000096 10.966628 1.008135 -70.200213 -2.936291 0.000000 0.000000 0.000000 1.452734 -1.611176 0.571835 10.702754 24.636673 -1.919772 7.620838 24.469878 -46.951957 -10.818703 58.092630 -11.879783 0.000000 0.000000 0.000000 
11.893155 53.085140 -26.823298 179.410368 12.034619 179.362530 4.627718 6.521173 17.494777 -3.325726 14.727737 -72.311978 13.231822 5.529323 102.605520 -3.823044 -18.332632 -21.691866 0.000000 0.000000 0.000000 5.923124 4.631920 20.122757 6.074926 -26.391168 -56.669772 1.095981 0.493896 114.987983 -4.213912 22.805795 -31.939413 0.000000 0.000000 0.000000 11.123139 4.500092 34.714201 0.412130 -3.734303 20.505321 3.037736 -3.480135 5.707422 0.068224 -0.180544 -0.067290 3.981191 -3.738516 5.163248 -2.965692 5.188058 -24.624528 0.000000 0.000000 0.000000 5.023268 -2.815023 1.273818 -4.482565 -8.092448 -2.731894 -49.310175 -46.941353 11.684412 1.249404 -69.753587 -2.713456 0.000000 0.000000 0.000000 1.403127 -1.444077 0.638123 10.464998 24.429404 -1.751958 8.409870 23.382787 -46.260967 -10.162962 55.961895 -10.939868 0.000000 0.000000 0.000000 
12.226601 53.185432 -27.165257 179.477222 11.971521 179.436364 4.732893 6.319866 17.526925 -3.056313 14.805675 -71.897863 13.057241 5.428528 102.480343 -3.988113 -18.323010 -21.832466 0.000000 0.000000 0.000000 6.062428 4.399174 19.985543 6.137638 -26.552461 -56.119631 1.312537 0.459392 114.542388 -4.512607 22.589155 -31.645899 0.000000 0.000000 0.000000 11.152593 4.187426 34.298253 0.409731 -3.692648 20.239754 2.947148 -3.487655 5.778788 0.062842 -0.035752 -0.042310 3.822707 -3.751674 5.273405 -2.989362 5.130868 -24.612257 0.000000 0.000000 0.000000 4.892181 -2.794659 1.282526 -4.369353 -8.072913 -2.617096 -49.087118 -46.625412 12.078965 0.894103 -68.951279 -1.999780 0.000000 0.000000 0.000000 1.273973 -1.385504 0.734356 10.208326 24.108189 -1.521145 10.458944 22.897589 -44.253339 -9.655213 55.934748 -10.523451 0.000000 0.000000 0.000000 
12.605780 53.309769 -27.611370 179.604838 11.810440 179.500636 4.874152 6.268637 17.621996 -2.636517 14.835149 -71.411868 12.938071 5.350788 102.393449 -4.270768 -18.367601 -21.954467 0.000000 0.000000 0.000000 6.257765 4.128988 20.001280 5.979871 -26.455874 -55.338005 1.294627 0.274325 113.958906 -4.396717 22.561033 -31.067918 0.000000 0.000000 0.000000 11.546633 4.091413 33.824128 0.289009 -3.637179 19.840661 2.855892 -3.634158 5.795207 0.038114 -0.165096 -0.068274 3.779219 -3.735612 5.410938 -2.954054 5.196682 -24.441004 0.000000 0.000000 0.000000 4.808730 -2.718752 1.458101 -4.010383 -7.970668 -2.741437 -49.191432 -45.879924 12.842053 0.551475 -67.906991 -1.464087 0.000000 0.000000 0.000000 1.248308 -1.377878 0.847829 9.994588 23.690875 -1.332528 13.361751 22.851434 -41.511410 -9.662878 58.375400 -10.856080 0.000000 0.000000 0.000000 
13.019135 53.468410 -28.120716 179.736770 11.712535 179.591177 4.963330 6.393731 17.684753 -2.246239 15.050131 -70.897528 12.670867 5.197306 102.234633 -4.720117 -18.448129 -22.025623 0.000000 0.000000 0.000000 6.583531 4.022316 20.087457 5.873356 -26.356517 -54.646947 1.252490 0.171205 113.292614 -3.904055 22.278617 -30.445981 0.000000 0.000000 0.000000 11.806366 4.229340 33.268929 0.122660 -3.696124 19.329222 2.831699 -3.636179 5.815092 0.060636 -0.051404 -0.046066 3.661381 -3.900163 5.478236 -2.923931 5.241278 -24.146749 0.000000 0.000000 0.000000 4.769924 -2.898512 1.539767 -3.560872 -7.878962 -2.564906 -49.074144 -45.062026 13.312008 0.682507 -66.744820 -1.554394 0.000000 0.000000 0.000000 1.142078 -1.558035 0.864120 9.656585 23.223166 -1.153290 16.581941 23.573387 -38.001134 -10.588471 63.273786 -12.261206 0.000000 0.000000 0.000000 
13.403414 53.634548 -28.617632 179.877157 11.841067 179.706484 5.042589 6.948072 17.647710 -1.776611 15.300780 -70.304305 12.528908 5.142097 102.098631 -5.484341 -18.666711 -22.029088 0.000000 0.000000 0.000000 6.914429 4.278849 20.037373 5.720591 -26.271416 -53.710695 1.228006 0.116899 112.579310 -3.541675 22.167133 -30.003839 0.000000 0.000000 0.000000 12.043172 4.685060 32.628825 -0.077024 -3.759146 18.840986 2.792561 -3.739361 5.848404 0.052387 -0.023007 -0.069972 3.596226 -4.055549 5.692196 -2.884263 5.271944 -23.704749 0.000000 0.000000 0.000000 4.727728 -3.116401 1.611341 -3.023057 -7.636543 -2.475899 -49.125767 -44.169338 13.845273 0.936110 -65.627053 -1.875833 0.000000 0.000000 0.000000 1.057741 -1.641760 0.938218 9.037741 22.946888 -1.091368 19.900680 24.854102 -33.712878 -12.827431 70.206244 -15.319115 0.000000 0.000000 0.000000 
13.736547 53.781731 -29.029108 179.963382 12.053585 179.775920 5.065644 7.460971 17.445389 -1.243148 15.515917 -69.709744 12.317164 5.001947 101.957437 -6.180757 -18.870725 -22.037255 0.000000 0.000000 0.000000 7.189413 4.575553 19.842567 5.519329 -26.361706 -52.791779 1.168023 0.103346 112.015492 -3.227355 21.993884 -29.529244 0.000000 0.000000 0.000000 12.195503 5.051715 31.774631 -0.258996 -3.789994 18.552626 2.696405 -3.799156 5.945233 -0.001708 0.050332 -0.007110 3.535546 -4.296805 5.831333 -2.889380 5.248971 -23.235848 0.000000 0.000000 0.000000 4.674984 -3.184705 1.678100 -2.372511 -7.500234 -2.522860 -49.602811 -43.714491 14.631349 0.946380 -64.866648 -2.033687 0.000000 0.000000 0.000000 0.979275 -1.735130 0.929120 8.288973 22.865440 -0.983615 22.925400 26.540619 -29.065634 -19.605853 78.086384 -22.847983 0.000000 0.000000 0.000000 
13.939964 53.872181 -29.347742 -179.978995 12.157998 -179.997437 4.982591 7.615729 17.080843 -0.880686 15.896797 -69.290186 12.152863 4.876215 101.997892 -6.680798 -18.951130 -22.005300 0.000000 0.000000 0.000000 7.301294 4.878795 19.470498 5.324705 -26.282315 -52.015907 1.074223 0.039909 111.578565 -2.975111 21.974366 -29.166287 0.000000 0.000000 0.000000 12.341792 5.365365 30.695430 -0.307415 -3.819605 18.353190 2.694792 -3.964266 6.025150 0.002356 0.019610 -0.020189 3.469256 -4.411167 5.934944 -2.790212 5.287396 -22.918464 0.000000 0.000000 0.000000 4.573454 -3.378496 1.748652 -1.827124 -7.408272 -2.628777 -50.532772 -43.712347 15.809393 0.880995 -64.350716 -2.154071 0.000000 0.000000 0.000000 0.865386 -1.870592 0.924640 7.574452 23.024267 -1.154621 25.715563 28.432776 -24.798381 -45.138306 84.878720 -49.172673 0.000000 0.000000 0.000000 
14.010422 53.893631 -29.537157 -179.910912 12.351483 -179.895367 4.929931 7.602302 16.764986 -0.537595 16.043807 -69.046444 12.082163 4.794290 102.145964 -6.877428 -19.012166 -22.200459 0.000000 0.000000 0.000000 7.267128 5.017078 19.111219 5.124796 -26.101664 -51.411954 0.992906 0.050773 111.409681 -2.738126 22.043915 -28.858830 0.000000 0.000000 0.000000 12.416742 5.461326 29.775199 -0.252918 -3.706866 18.352718 2.580182 -4.054683 6.060259 0.005115 0.003212 0.060729 3.446796 -4.508377 5.989202 -2.681890 5.297985 -22.508050 0.000000 0.000000 0.000000 4.472255 -3.450403 1.768863 -1.323860 -7.434217 -2.689942 -51.800926 -44.184576 17.177017 1.088034 -64.317767 -2.471126 0.000000 0.000000 0.000000 0.754919 -1.975089 0.867381 7.259093 23.296146 -1.110776 28.219002 30.288289 -21.939939 -124.530659 85.712160 -129.416703 0.000000 0.000000 0.000000 
